<?xml version="1.0" encoding="UTF-8"?>
<svg version="1.1" xmlns="http://www.w3.org/2000/svg" width="1032" height="876">
<path d="M0 0 C340.56 0 681.12 0 1032 0 C1032 289.08 1032 578.16 1032 876 C691.44 876 350.88 876 0 876 C0 586.92 0 297.84 0 0 Z " fill="#FEFEFE" transform="translate(0,0)"/>
<path d="M0 0 C0 46.53 0 93.06 0 141 C5.94 141 11.88 141 18 141 C25.01113219 141.18310861 32.00195696 141.53789065 39 142 C39.73669922 142.04850098 40.47339844 142.09700195 41.23242188 142.14697266 C88.4280402 145.55987894 136.03621999 159.53085488 179 179 C179.95616211 179.43135254 180.91232422 179.86270508 181.89746094 180.30712891 C231.36619987 202.82206342 281.83028188 237.05122075 317.3125 278.75 C320.05798122 281.94185122 322.88589615 285.03918827 325.75 288.125 C331.53225025 294.47499385 336.78866046 301.17852408 342 308 C342.73935791 308.96196289 342.73935791 308.96196289 343.49365234 309.94335938 C350.29005335 318.8011969 356.77693606 327.80495446 362.82421875 337.19189453 C364.01767942 339.02718725 365.24118196 340.83973237 366.46875 342.65234375 C367.23029249 343.80915547 367.99075964 344.96667603 368.75 346.125 C369.42546875 347.13820313 370.1009375 348.15140625 370.796875 349.1953125 C372 352 372 352 371.46484375 354.44921875 C369.66301948 357.58679541 367.79778188 360.66371189 365.8125 363.6875 C365.4110376 364.30471924 365.0095752 364.92193848 364.59594727 365.55786133 C361.17770421 370.78676125 357.64576339 375.92692432 354 381 C353.35160156 381.90492188 352.70320312 382.80984375 352.03515625 383.7421875 C347.81205216 389.59455055 343.47785721 395.34062392 339 401 C338.40832031 401.75539063 337.81664062 402.51078125 337.20703125 403.2890625 C327.55810876 415.50439942 317.34973893 426.98616059 306.30883789 437.9519043 C304.42811472 439.82183141 302.55843181 441.70232638 300.68945312 443.58398438 C294.44354527 449.83604917 288.14733022 455.77164969 281.19165039 461.23706055 C279.01191505 462.91445908 279.01191505 462.91445908 277.32592773 464.73754883 C276 466 276 466 274 466 C274 466.66 274 467.32 274 468 C272.70922852 469.22998047 272.70922852 469.22998047 270.87890625 470.6171875 C270.19989258 471.13539063 269.52087891 471.65359375 268.82128906 472.1875 C268.07588867 472.744375 267.33048828 473.30125 266.5625 473.875 C265.79260742 474.45507812 265.02271484 475.03515625 264.22949219 475.6328125 C261.82766859 477.43295727 259.41630806 479.21935387 257 481 C256.29536621 481.51981445 255.59073242 482.03962891 254.86474609 482.57519531 C237.79468989 495.08261625 219.69744911 506.10386259 201 516 C200.18015625 516.43521973 199.3603125 516.87043945 198.515625 517.31884766 C153.61743276 540.9499227 104.14782752 555.90165218 53.82958984 562.11026001 C51.82523053 562.35797794 49.82268228 562.62022824 47.8203125 562.88354492 C37.52158866 564.10665127 27.24021743 564.08063287 16.88598633 564.04150391 C15.34091505 564.03816617 13.79584307 564.03513744 12.25077057 564.03242493 C8.50049895 564.02517745 4.75025407 564.01375396 1 564 C0.97667185 545.89392384 0.95902124 527.78785157 0.94818783 509.68176365 C0.94302469 501.27538616 0.93598166 492.86901799 0.92456055 484.46264648 C0.91461425 477.13832068 0.9081467 469.81400163 0.90591151 462.48966926 C0.90460431 458.60909213 0.90151788 454.7285343 0.89426994 450.84796333 C0.88751058 447.19960443 0.88538287 443.55127289 0.88689232 439.90290833 C0.88648363 437.91711581 0.881088 435.9313263 0.87557983 433.94554138 C0.8769545 432.7745993 0.87832916 431.60365723 0.87974548 430.39723206 C0.87836279 428.86106405 0.87836279 428.86106405 0.87695217 427.29386234 C1 425 1 425 2 424 C3.41960387 423.79607382 4.84797518 423.65248712 6.27734375 423.53515625 C7.17348389 423.45869873 8.06962402 423.38224121 8.99291992 423.3034668 C10.45048706 423.18418823 10.45048706 423.18418823 11.9375 423.0625 C13.97404957 422.88384956 16.01050733 422.70414956 18.046875 422.5234375 C23.93812908 422.00538119 23.93812908 422.00538119 26.36914062 421.79394531 C46.55730318 419.98454221 66.76385756 416.45127346 86 410 C86.86512207 409.71785645 87.73024414 409.43571289 88.62158203 409.14501953 C102.4945081 404.60719142 115.87098902 399.38152741 129 393 C129.78294434 392.62149902 130.56588867 392.24299805 131.37255859 391.85302734 C150.14084129 382.66904474 172.05944147 370.64871819 186.56591797 355.34838867 C188 354 188 354 190 354 C179.17735481 342.81117509 166.25253523 334.04696185 153 326 C152.37077637 325.61779297 151.74155273 325.23558594 151.09326172 324.84179688 C130.87929483 312.72303481 109.36192245 303.34484029 87 296 C86.20126465 295.73606445 85.4025293 295.47212891 84.57958984 295.20019531 C57.15161707 286.27631921 28.65934158 284.04709583 0 282 C0 328.53 0 375.06 0 423 C-101.39087215 423 -198.02462776 389.69839874 -276 324 C-276.5170752 323.5678418 -277.03415039 323.13568359 -277.56689453 322.69042969 C-292.16409107 310.47372554 -306.68798401 297.63956614 -319.1015625 283.17578125 C-321.26745005 280.69347802 -323.50876957 278.28944855 -325.75 275.875 C-331.53036924 269.52007598 -336.80390617 262.83687771 -342 256 C-342.53641113 255.29875 -343.07282227 254.5975 -343.62548828 253.875 C-350.74081377 244.53857522 -357.46298574 235.00002128 -363.8125 225.125 C-364.41747314 224.19171875 -365.02244629 223.2584375 -365.64575195 222.296875 C-366.20222412 221.41773438 -366.75869629 220.53859375 -367.33203125 219.6328125 C-367.82421143 218.85824707 -368.3163916 218.08368164 -368.82348633 217.28564453 C-370.11554215 214.77553318 -370.74996676 212.81322468 -371 210 C-370.31005859 208.06567383 -370.31005859 208.06567383 -369.1484375 206.20703125 C-368.71595703 205.50352539 -368.28347656 204.80001953 -367.83789062 204.07519531 C-367.35513672 203.32850586 -366.87238281 202.58181641 -366.375 201.8125 C-365.6315332 200.63252441 -365.6315332 200.63252441 -364.87304688 199.42871094 C-350.57478079 177.03759063 -333.73377567 156.35231056 -315.66796875 136.9140625 C-313.61609969 134.6729288 -311.62676924 132.40604788 -309.6484375 130.1015625 C-306.12884868 126.06678404 -302.36486768 122.38446934 -298.4375 118.75 C-297.74205078 118.10305176 -297.04660156 117.45610352 -296.33007812 116.78955078 C-289.71085918 110.66873071 -282.92583579 104.7699636 -276 99 C-275.37657715 98.47696289 -274.7531543 97.95392578 -274.11083984 97.41503906 C-221.28505648 53.2054742 -157.89911428 23.85291993 -90.9375 8.625 C-90.25405518 8.46918457 -89.57061035 8.31336914 -88.86645508 8.15283203 C-84.55041771 7.21612585 -80.27628728 6.65392376 -75.88500977 6.25927734 C-73.91444449 6.09104059 -73.91444449 6.09104059 -72 5 C-69.22884672 4.62935463 -66.46655056 4.297175 -63.6875 4 C-62.1703593 3.83528922 -60.65342447 3.66866927 -59.13671875 3.5 C-58.12677856 3.39171875 -58.12677856 3.39171875 -57.09643555 3.28125 C-55.58573245 3.07857969 -54.08328718 2.81060113 -52.59057617 2.50219727 C-47.65591065 1.54558554 -42.63119161 1.31889722 -37.625 0.9375 C-36.5525 0.84662109 -35.48 0.75574219 -34.375 0.66210938 C-22.83692609 -0.21982386 -11.69166791 0 0 0 Z " fill="#4A8B93" transform="translate(518,263)"/>
<path d="M0 0 C13.09527891 0 25.9660636 0.13931597 39 1 C39.73669922 1.04850098 40.47339844 1.09700195 41.23242188 1.14697266 C88.4280402 4.55987894 136.03621999 18.53085488 179 38 C179.95616211 38.43135254 180.91232422 38.86270508 181.89746094 39.30712891 C231.36619987 61.82206342 281.83028188 96.05122075 317.3125 137.75 C320.05798122 140.94185122 322.88589615 144.03918827 325.75 147.125 C331.53225025 153.47499385 336.78866046 160.17852408 342 167 C342.49290527 167.64130859 342.98581055 168.28261719 343.49365234 168.94335938 C350.29005335 177.8011969 356.77693606 186.80495446 362.82421875 196.19189453 C364.01767942 198.02718725 365.24118196 199.83973237 366.46875 201.65234375 C367.23029249 202.80915547 367.99075964 203.96667603 368.75 205.125 C369.76320313 206.64480469 369.76320313 206.64480469 370.796875 208.1953125 C372 211 372 211 371.46484375 213.44921875 C369.66301948 216.58679541 367.79778188 219.66371189 365.8125 222.6875 C365.4110376 223.30471924 365.0095752 223.92193848 364.59594727 224.55786133 C361.17770421 229.78676125 357.64576339 234.92692432 354 240 C353.35160156 240.90492188 352.70320313 241.80984375 352.03515625 242.7421875 C347.81205216 248.59455055 343.47785721 254.34062392 339 260 C338.40832031 260.75539063 337.81664062 261.51078125 337.20703125 262.2890625 C327.55810876 274.50439942 317.34973893 285.98616059 306.30883789 296.9519043 C304.42811472 298.82183141 302.55843181 300.70232638 300.68945312 302.58398438 C294.44354527 308.83604917 288.14733022 314.77164969 281.19165039 320.23706055 C279.01191505 321.91445908 279.01191505 321.91445908 277.32592773 323.73754883 C276 325 276 325 274 325 C274 325.66 274 326.32 274 327 C272.70922852 328.22998047 272.70922852 328.22998047 270.87890625 329.6171875 C270.19989258 330.13539063 269.52087891 330.65359375 268.82128906 331.1875 C268.07588867 331.744375 267.33048828 332.30125 266.5625 332.875 C265.79260742 333.45507812 265.02271484 334.03515625 264.22949219 334.6328125 C261.82766859 336.43295727 259.41630806 338.21935387 257 340 C256.29536621 340.51981445 255.59073242 341.03962891 254.86474609 341.57519531 C237.79468989 354.08261625 219.69744911 365.10386259 201 375 C200.18015625 375.43521973 199.3603125 375.87043945 198.515625 376.31884766 C153.61743276 399.9499227 104.14782752 414.90165218 53.82958984 421.11026001 C51.82523053 421.35797794 49.82268228 421.62022824 47.8203125 421.88354492 C37.52158866 423.10665127 27.24021743 423.08063287 16.88598633 423.04150391 C15.34091505 423.03816617 13.79584307 423.03513744 12.25077057 423.03242493 C8.50049895 423.02517745 4.75025407 423.01375396 1 423 C0.97667185 404.89392384 0.95902124 386.78785157 0.94818783 368.68176365 C0.94302469 360.27538616 0.93598166 351.86901799 0.92456055 343.46264648 C0.91461425 336.13832068 0.9081467 328.81400163 0.90591151 321.48966926 C0.90460431 317.60909213 0.90151788 313.7285343 0.89426994 309.84796333 C0.88751058 306.19960443 0.88538287 302.55127289 0.88689232 298.90290833 C0.88648363 296.91711581 0.881088 294.9313263 0.87557983 292.94554138 C0.8769545 291.7745993 0.87832916 290.60365723 0.87974548 289.39723206 C0.87836279 287.86106405 0.87836279 287.86106405 0.87695217 286.29386234 C1 284 1 284 2 283 C3.41960387 282.79607382 4.84797518 282.65248712 6.27734375 282.53515625 C7.17348389 282.45869873 8.06962402 282.38224121 8.99291992 282.3034668 C10.45048706 282.18418823 10.45048706 282.18418823 11.9375 282.0625 C13.97404957 281.88384956 16.01050733 281.70414956 18.046875 281.5234375 C23.93812908 281.00538119 23.93812908 281.00538119 26.36914062 280.79394531 C46.55730318 278.98454221 66.76385756 275.45127346 86 269 C86.86512207 268.71785645 87.73024414 268.43571289 88.62158203 268.14501953 C102.4945081 263.60719142 115.87098902 258.38152741 129 252 C129.78294434 251.62149902 130.56588867 251.24299805 131.37255859 250.85302734 C150.14084129 241.66904474 172.05944147 229.64871819 186.56591797 214.34838867 C188 213 188 213 190 213 C179.17735481 201.81117509 166.25253523 193.04696185 153 185 C152.37077637 184.61779297 151.74155273 184.23558594 151.09326172 183.84179688 C130.87929483 171.72303481 109.36192245 162.34484029 87 155 C86.20126465 154.73606445 85.4025293 154.47212891 84.57958984 154.20019531 C57.15161707 145.27631921 28.65934158 143.04709583 0 141 C0 94.47 0 47.94 0 0 Z " fill="#488992" transform="translate(518,404)"/>
<path d="M0 0 C4.02551962 1.62754262 6.80089716 4.47637463 9.875 7.4375 C16.00857327 13.21400548 22.42713547 18.45267966 29.12255859 23.55957031 C31.06928309 25.05315608 32.99830738 26.56760839 34.92578125 28.0859375 C50.45798103 40.24794299 66.88793534 51.18677289 84 61 C84.65935547 61.38043457 85.31871094 61.76086914 85.99804688 62.15283203 C148.13422087 97.84466719 214.83677987 116.30694239 286 122 C286 159.62 286 197.24 286 236 C146.74 236 7.48 236 -136 236 C-134.44615425 232.11538563 -132.86235312 228.82814443 -130.796875 225.23046875 C-130.15355225 224.10688965 -129.51022949 222.98331055 -128.84741211 221.82568359 C-128.14840128 220.61288279 -127.44926061 219.40015681 -126.75 218.1875 C-126.0252852 216.92540022 -125.30075976 215.66319169 -124.57641602 214.40087891 C-119.49625437 205.55723637 -114.36874397 196.74132033 -109.21948242 187.93774414 C-103.06376359 177.41255252 -96.97721107 166.84778019 -90.89111328 156.28222656 C-87.76319852 150.85340058 -84.63141552 145.42680719 -81.5 140 C-80.24998121 137.83334417 -78.99998122 135.6666775 -77.75 133.5 C-65.25 111.83333333 -52.75 90.16666667 -40.25 68.5 C-39.63108887 67.42717773 -39.01217773 66.35435547 -38.37451172 65.24902344 C-37.12628966 63.08552524 -35.87791761 60.92211357 -34.62939453 58.75878906 C-31.47594744 53.29434983 -28.32523904 47.82836355 -25.1796875 42.359375 C-19.04089825 31.69144324 -12.87714476 21.03949303 -6.625 10.4375 C-6.07118652 9.49680664 -5.51737305 8.55611328 -4.94677734 7.58691406 C-4.44098145 6.73194336 -3.93518555 5.87697266 -3.4140625 4.99609375 C-2.9701416 4.24513428 -2.5262207 3.4941748 -2.06884766 2.72045898 C-1 1 -1 1 0 0 Z " fill="#387F88" transform="translate(203,592)"/>
<path d="M0 0 C2.6908148 3.23266975 4.93884808 6.42777197 6.9609375 10.11328125 C7.50741943 11.10126709 8.05390137 12.08925293 8.61694336 13.10717773 C9.19710205 14.16493408 9.77726074 15.22269043 10.375 16.3125 C15.13848026 24.90925435 19.96616631 33.45915236 24.9375 41.9375 C29.79942097 50.23377019 34.6362684 58.54343271 39.4375 66.875 C40.06003662 67.95515381 40.68257324 69.03530762 41.32397461 70.14819336 C42.58576826 72.33796334 43.84740534 74.52782355 45.10888672 76.71777344 C48.23680148 82.14659942 51.36858448 87.57319281 54.5 93 C55.75001879 95.16665583 57.00001878 97.3333225 58.25 99.5 C59.178125 101.10875 59.178125 101.10875 60.125 102.75 C80.75 138.5 80.75 138.5 82.62524414 141.75048828 C83.87435518 143.91557071 85.12354129 146.08060982 86.37280273 148.24560547 C89.51202309 153.68615706 92.64990563 159.12747216 95.78515625 164.5703125 C101.80747329 175.02206199 107.84669337 185.46299548 113.9375 195.875 C119.35921178 205.14499777 124.70204915 214.45831752 130.01922607 223.78845215 C135.22045129 232.9128284 140.48027878 242.00132774 145.78344727 251.06689453 C151.93766742 261.59084625 158.02369996 272.15380137 164.10888672 282.71777344 C167.23680148 288.14659942 170.36858448 293.57319281 173.5 299 C174.75001879 301.16665583 176.00001878 303.3333225 177.25 305.5 C177.86875 306.5725 178.4875 307.645 179.125 308.75 C184.75 318.5 184.75 318.5 186.62573242 321.75146484 C187.87306548 323.91337884 189.1206233 326.07516317 190.3684082 328.23681641 C193.53608832 333.72514585 196.69956761 339.21582533 199.85546875 344.7109375 C201.13264189 346.93238976 202.40998385 349.15374498 203.6875 351.375 C204.30238281 352.44556641 204.91726563 353.51613281 205.55078125 354.61914062 C208.52719864 359.78354144 211.53964408 364.91945727 214.64453125 370.0078125 C215.21147705 370.93803223 215.77842285 371.86825195 216.36254883 372.82666016 C217.42909873 374.56793367 218.50281478 376.30484449 219.5847168 378.03662109 C220.05176025 378.79797363 220.51880371 379.55932617 221 380.34375 C221.4125 381.00568359 221.825 381.66761719 222.25 382.34960938 C222.62125 383.16655273 222.62125 383.16655273 223 384 C222.67 384.66 222.34 385.32 222 386 C221.17483887 385.54898926 221.17483887 385.54898926 220.33300781 385.08886719 C197.30693907 372.58846138 173.50290197 362.5306664 148.75537109 353.9675293 C145.99170434 352.99708704 143.24859418 351.97975832 140.50390625 350.95703125 C111.49400567 340.39158579 79.62996367 334.99535922 49 332 C42.4 331.34 35.8 330.68 29 330 C29 283.14 29 236.28 29 188 C-19.33935733 188.37027838 -19.33935733 188.37027838 -67 193 C-68.40451416 193.19746826 -68.40451416 193.19746826 -69.83740234 193.39892578 C-80.01299665 194.83341425 -90.02049225 197.01096158 -100.03833008 199.28686523 C-105.35582539 200.48569327 -110.57816914 201.42592379 -116 202 C-114.62551133 198.36367377 -112.99565142 195.02935879 -111.09375 191.640625 C-110.52019775 190.61654541 -109.94664551 189.59246582 -109.35571289 188.53735352 C-108.74332764 187.45252686 -108.13094238 186.3677002 -107.5 185.25 C-106.86634521 184.12327881 -106.23269043 182.99655762 -105.57983398 181.83569336 C-101.74999436 175.04482257 -97.86664399 168.29015254 -93.8894043 161.5847168 C-90.14695337 155.27275475 -86.47596521 148.92058399 -82.8125 142.5625 C-82.17449463 141.45527588 -81.53648926 140.34805176 -80.87915039 139.20727539 C-79.57110523 136.93662932 -78.26324552 134.66587642 -76.95556641 132.39501953 C-73.80667946 126.9283002 -70.65316736 121.46425113 -67.5 116 C-66.2499765 113.83334689 -64.99997653 111.66668021 -63.75 109.5 C-60 103 -60 103 -56.25 96.5 C-55.63116943 95.42733887 -55.01233887 94.35467773 -54.37475586 93.24951172 C-53.12564482 91.08442929 -51.87645871 88.91939018 -50.62719727 86.75439453 C-47.48797691 81.31384294 -44.35009437 75.87252784 -41.21484375 70.4296875 C-34.60825457 58.96370628 -27.97773893 47.51256186 -21.29785156 36.08911133 C-18.12239345 30.65405361 -14.96335507 25.20999626 -11.82421875 19.75390625 C-11.47747101 19.15146088 -11.13072327 18.5490155 -10.77346802 17.92831421 C-9.08303604 14.99061073 -7.39469183 12.05174774 -5.70898438 9.11132812 C-5.10763672 8.06525391 -4.50628906 7.01917969 -3.88671875 5.94140625 C-3.08560669 4.54450562 -3.08560669 4.54450562 -2.26831055 3.11938477 C-1 1 -1 1 0 0 Z " fill="#387F88" transform="translate(518,46)"/>
<path d="M0 0 C0 46.53 0 93.06 0 141 C-7.59 141.33 -15.18 141.66 -23 142 C-28.92754812 142.65442145 -34.79874804 143.35512746 -40.6875 144.25 C-41.43547852 144.36081909 -42.18345703 144.47163818 -42.95410156 144.58581543 C-54.84466661 146.3556648 -66.49428606 148.46886817 -78 152 C-79.00337402 152.30389648 -80.00674805 152.60779297 -81.04052734 152.92089844 C-118.72776206 164.49886527 -157.60748866 182.24395842 -186.34838867 209.99169922 C-188 211 -188 211 -190.07055664 210.75805664 C-192.5850541 209.77013881 -194.23642921 208.35606954 -196.25 206.5625 C-196.95640625 205.94503906 -197.6628125 205.32757813 -198.390625 204.69140625 C-200 203 -200 203 -200 201 C-200.58136719 200.74476563 -201.16273438 200.48953125 -201.76171875 200.2265625 C-208.65609764 196.448491 -213.96331382 188.93163455 -219 183 C-219.72703125 182.16210938 -220.4540625 181.32421875 -221.203125 180.4609375 C-240.78701114 157.52883857 -263.78244625 126.72172417 -271 97 C-269.75885128 93.52366428 -267.87926841 91.85085985 -264.95703125 89.6796875 C-264.13887939 89.06738281 -263.32072754 88.45507812 -262.4777832 87.82421875 C-261.59823975 87.18097656 -260.71869629 86.53773438 -259.8125 85.875 C-258.44774536 84.86759766 -258.44774536 84.86759766 -257.05541992 83.83984375 C-207.20394209 47.26834685 -151.16543867 22.32159673 -90.9375 8.625 C-89.91233276 8.39127686 -89.91233276 8.39127686 -88.86645508 8.15283203 C-84.55041771 7.21612585 -80.27628728 6.65392376 -75.88500977 6.25927734 C-73.91444449 6.09104059 -73.91444449 6.09104059 -72 5 C-69.22884672 4.62935463 -66.46655056 4.297175 -63.6875 4 C-62.1703593 3.83528922 -60.65342447 3.66866927 -59.13671875 3.5 C-58.46342529 3.4278125 -57.79013184 3.355625 -57.09643555 3.28125 C-55.58573245 3.07857969 -54.08328718 2.81060113 -52.59057617 2.50219727 C-47.65591065 1.54558554 -42.63119161 1.31889722 -37.625 0.9375 C-36.5525 0.84662109 -35.48 0.75574219 -34.375 0.66210938 C-22.83692609 -0.21982386 -11.69166791 0 0 0 Z " fill="#468790" transform="translate(518,263)"/>
<path d="M0 0 C3.92387566 1.30795855 4.2734936 2.7373968 6.265625 6.30859375 C7.21804077 7.99782959 7.21804077 7.99782959 8.18969727 9.72119141 C8.87649669 10.95994328 9.5632634 12.1987133 10.25 13.4375 C10.96632588 14.71331272 11.68370709 15.98853343 12.40209961 17.26318359 C13.88243388 19.8906333 15.35906736 22.52011126 16.83349609 25.15087891 C20.02694518 30.83744218 23.29471932 36.48092735 26.5625 42.125 C27.80353174 44.27335298 29.04441698 46.4217906 30.28515625 48.5703125 C30.89762207 49.63024414 31.51008789 50.69017578 32.14111328 51.78222656 C35.26324605 57.18670645 38.38141204 62.59347412 41.5 68 C42.74998122 70.1666775 43.99998121 72.33334417 45.25 74.5 C47.75 78.83333333 50.25 83.16666667 52.75 87.5 C53.36931396 88.5734668 53.98862793 89.64693359 54.62670898 90.75292969 C55.87104998 92.90980903 57.11535364 95.06670992 58.35961914 97.22363281 C62.2331621 103.93824771 66.10821291 110.65199026 69.98413086 117.36523438 C71.87618581 120.64375579 73.76641412 123.92332407 75.65625 127.203125 C77.66964826 130.69709652 79.68896049 134.18740302 81.71875 137.671875 C82.45834707 138.9479087 83.19793184 140.22394954 83.9375 141.5 C84.54464844 142.5415625 85.15179687 143.583125 85.77734375 144.65625 C87 147 87 147 87 149 C-8.04 149 -103.08 149 -201 149 C-198.89972822 146.89972822 -197.60134827 146.3113076 -194.87109375 145.2578125 C-193.58464966 144.75121094 -193.58464966 144.75121094 -192.2722168 144.234375 C-191.33676025 143.86828125 -190.40130371 143.5021875 -189.4375 143.125 C-176.66403014 138.01010762 -164.31384665 132.12890792 -152 126 C-151.22881836 125.61908203 -150.45763672 125.23816406 -149.66308594 124.84570312 C-128.9848381 114.55925654 -109.38653311 101.94226147 -91 88 C-90.39381836 87.54399414 -89.78763672 87.08798828 -89.16308594 86.61816406 C-81.62014839 80.93695875 -74.24462299 75.05681895 -67 69 C-66.44666992 68.53835449 -65.89333984 68.07670898 -65.32324219 67.60107422 C-58.32642281 61.7459225 -51.61195549 55.77886021 -45.23828125 49.23828125 C-43.17038244 47.17038244 -41.04288324 45.26421564 -38.8125 43.375 C-35.45731663 40.50393127 -32.6235753 37.38943735 -29.7734375 34.0234375 C-27.97538083 31.97191028 -26.0842574 30.08480459 -24.125 28.1875 C-20.25408555 24.368594 -16.85640919 20.26750584 -13.453125 16.03125 C-10.66253687 12.58300734 -7.80837727 9.19389958 -4.9375 5.8125 C-4.44789795 5.23540283 -3.9582959 4.65830566 -3.45385742 4.0637207 C-2.3033317 2.70850149 -1.15178225 1.35415147 0 0 Z " fill="#397F88" transform="translate(882,679)"/>
<path d="M0 0 C0 46.53 0 93.06 0 141 C-23.52673867 141 -23.52673867 141 -30.125 140.3125 C-31.39585449 140.18331177 -31.39585449 140.18331177 -32.69238281 140.05151367 C-85.39330056 134.1794789 -136.88402508 113.61330053 -178.27587891 80.38183594 C-180.68160429 78.45371279 -183.12223846 76.57160891 -185.5625 74.6875 C-186.7089449 73.79244945 -187.85508814 72.89701072 -189 72 C-180.91015698 51.84395043 -141.74480932 35.84172361 -123 27 C-122.29794434 26.66758301 -121.59588867 26.33516602 -120.87255859 25.99267578 C-96.96631746 14.77269426 -72.03289543 7.28430238 -46 3 C-45.07525879 2.84756836 -44.15051758 2.69513672 -43.19775391 2.53808594 C-40.3434219 2.08276958 -37.48609569 1.66052325 -34.625 1.25 C-33.80233643 1.12222168 -32.97967285 0.99444336 -32.13208008 0.86279297 C-21.34621499 -0.58128011 -11.09399356 0 0 0 Z " fill="#FEFEFE" transform="translate(518,404)"/>
<path d="M0 0 C4.62 0 9.24 0 14 0 C14 0.33 14 0.66 14 1 C9.71 1 5.42 1 1 1 C1 47.2 1 93.4 1 141 C6.28 141 11.56 141 17 141 C17 141.33 17 141.66 17 142 C12.05 142.33 7.1 142.66 2 143 C1.67 188.87 1.34 234.74 1 282 C8.26 282 15.52 282 23 282 C23 282.33 23 282.66 23 283 C15.41 283 7.82 283 0 283 C0 236.47 0 189.94 0 142 C-3.63 142 -7.26 142 -11 142 C-11 141.67 -11 141.34 -11 141 C-7.37 141 -3.74 141 0 141 C0 94.47 0 47.94 0 0 Z " fill="#AACECF" transform="translate(518,545)"/>
</svg>
